<?xml version="1.0" standalone="no"?>
<!DOCTYPE svg PUBLIC "-//W3C//DTD SVG 1.1//EN" "http://www.w3.org/Graphics/SVG/1.1/DTD/svg11.dtd" >
<svg xmlns="http://www.w3.org/2000/svg">
<metadata>
Created by FontForge 20120731 at Sun Feb 19 12:27:51 2017
 By admin
</metadata>
<defs>
<font id="iconfont" horiz-adv-x="1024" >
  <font-face 
    font-family="iconfont"
    font-weight="500"
    font-stretch="normal"
    units-per-em="1024"
    panose-1="2 0 6 3 0 0 0 0 0 0"
    ascent="896"
    descent="-128"
    x-height="792"
    bbox="0 -254 1205 896.012"
    underline-thickness="0"
    underline-position="0"
    unicode-range="U+0078-E836"
  />
<missing-glyph 
 />
    <glyph glyph-name=".notdef" 
 />
    <glyph glyph-name=".notdef" 
 />
    <glyph glyph-name=".null" horiz-adv-x="0" 
 />
    <glyph glyph-name="nonmarkingreturn" horiz-adv-x="341" 
 />
    <glyph glyph-name="x" unicode="x" horiz-adv-x="1001" 
d="M281 543q-27 -1 -53 -1h-83q-18 0 -36.5 -6t-32.5 -18.5t-23 -32t-9 -45.5v-76h912v41q0 16 -0.5 30t-0.5 18q0 13 -5 29t-17 29.5t-31.5 22.5t-49.5 9h-133v-97h-438v97zM955 310v-52q0 -23 0.5 -52t0.5 -58t-10.5 -47.5t-26 -30t-33 -16t-31.5 -4.5q-14 -1 -29.5 -0.5
t-29.5 0.5h-32l-45 128h-439l-44 -128h-29h-34q-20 0 -45 1q-25 0 -41 9.5t-25.5 23t-13.5 29.5t-4 30v167h911zM163 247q-12 0 -21 -8.5t-9 -21.5t9 -21.5t21 -8.5q13 0 22 8.5t9 21.5t-9 21.5t-22 8.5zM316 123q-8 -26 -14 -48q-5 -19 -10.5 -37t-7.5 -25t-3 -15t1 -14.5
t9.5 -10.5t21.5 -4h37h67h81h80h64h36q23 0 34 12t2 38q-5 13 -9.5 30.5t-9.5 34.5q-5 19 -11 39h-368zM336 498v228q0 11 2.5 23t10 21.5t20.5 15.5t34 6h188q31 0 51.5 -14.5t20.5 -52.5v-227h-327z" />
    <glyph glyph-name="jiantouyou" unicode="&#xe6a0;" 
d="M315 752l-59 -60l392 -392l-392 -392l59 -60l453 452z" />
    <glyph glyph-name="jiahao" unicode="&#xe66b;" 
d="M862 297q0 -24 -17 -41t-41 -17h-584q-24 0 -41 17t-17 41v29q0 24 17 41t41 17h584q24 0 41 -17t17 -41v-29zM527 661q23 0 40.5 -17t17.5 -41v-583q0 -24 -17.5 -41t-40.5 -17h-29q-24 0 -41.5 17t-17.5 41v583q0 24 17.5 41t41.5 17h29z" />
    <glyph glyph-name="juanzhu" unicode="&#xe649;" 
d="M865 208l-0.5 1l-0.5 1q45 41 70.5 98.5t25.5 120.5q0 120 -80.5 205t-194.5 85q-95 0 -172 -66l-0.5 0.5l-0.5 0.5q-76 65 -173 65q-114 0 -194.5 -85t-80.5 -205q0 -65 26.5 -123.5t74.5 -99.5q-19 -23 -18 -54t21 -53q18 -18 46 -22q2 -30 20 -49t48 -23q3 -29 20 -48
q19 -20 50 -23q4 -28 20 -45q24 -25 58 -25t57 25l29 30l35 -37q23 -24 56.5 -24t56.5 24q17 18 21 48q29 3 47 22t21 49q28 4 45 23q20 20 22 52q27 5 42 22q20 21 21.5 50.5t-14.5 53.5q0 1 -4 6zM896 429q0 -50 -20.5 -95t-56.5 -77l-236 242q12 22 -6 39q-9 9 -22.5 8.5
t-22.5 -9.5l-81 -86q-10 -11 -20 0q-5 5 -5 13t5 14l104 110l0.5 0.5l0.5 0.5q62 66 149 66t149 -66.5t62 -159.5zM215 167l112 119q5 5 11.5 5t11.5 -5q4 -5 4 -12t-4 -12l-112 -119q-5 -5 -11.5 -5t-11.5 5t-5 12.5t5 11.5zM281 96l112 119q5 5 11.5 5t11.5 -5
q4 -5 4 -12.5t-4 -12.5l-112 -118q-12 -12 -23 0q-5 5 -5 12t5 12zM349 25l112 119q4 5 10.5 5t11.5 -5t5 -12t-5 -12l-112 -119q-5 -5 -11.5 -5t-11 5t-4.5 12.5t5 11.5zM418 -67q-4 5 -4 12.5t4 11.5l113 119q4 5 10.5 5t11.5 -5t5 -12t-5 -12l-112 -119q-11 -12 -23 0z
M816 142q-10 -11 -20 0q-9 9 -22.5 9.5t-23 -8.5t-10 -22.5t8.5 -22.5q0 -1 0.5 -1h0.5l0.5 -1t1.5 -2q5 -5 5 -13t-5 -13t-10 -5v0q-6 0 -10 5q-9 9 -22.5 9.5t-23.5 -8.5q-15 -15 -8 -35q3 -6 7 -11q5 -5 5 -13.5t-5 -13.5q-4 -5 -10 -5q-8 2 -10 5v0h-1v1q-9 9 -22 9.5
t-23 -8.5t-10 -22.5t9 -22.5q5 -6 5 -14t-5 -13q-10 -11 -20 0l-38 40l40 42q22 23 22 56t-22 56q-19 20 -50 23q-4 28 -20 45q-18 18 -47 22q-3 30 -21 49q-16 17 -45 22q-2 30 -21 49q-23 24 -58 24t-57 -24l-72 -76q-38 32 -59.5 78t-21.5 97q0 93 62 159.5t149 66.5
q70 0 127 -46l-82 -88q-22 -23 -22 -56.5t22 -57.5q23 -25 56.5 -25t56.5 25l43 45l276 -284q5 -5 5 -13t-5 -13z" />
    <glyph glyph-name="aixinjuanzeng" unicode="&#xe615;" 
d="M912 653q-54 47 -125 53t-133 -20.5t-103 -74.5q-19 25 -43 47t-57 40.5t-68.5 28t-80.5 6.5t-90 -21q-61 -24 -104.5 -72t-59.5 -110.5t-7.5 -129.5t54 -136t121.5 -123q58 -41 125 -70t122 -43l68 -15q2 9 14 10q6 1 12 9t14 9q7 1 11.5 4.5t5.5 5.5l1 3q-7 1 -20 3.5
t-50.5 13.5t-74 25t-84 40t-86.5 56q-60 48 -91 101.5t-32 101.5t13.5 89t41.5 73q37 43 86 62t95 15t86 -27q53 -31 80 -73t22 -84q-2 -25 -11 -31.5t-18 1t-14 21.5q-3 9 -4 17.5t-0.5 15.5t2.5 14.5t3.5 11.5t4.5 10.5t3 7.5q-17 23 -30 33q-24 -45 -17 -82q4 -27 23 -46
t40 -18t30 26q9 16 9 55.5t-15 75.5q33 32 72.5 47t96.5 3q61 -12 95.5 -72t10.5 -133q-12 -36 -34 -62t-45.5 -38t-45 -18.5t-35.5 -7.5h-14q1 -32 -13 -47q-13 -15 -12 -32.5t-3 -22.5q-5 -6 -5.5 -18.5t1.5 -21.5l1 -10q13 2 34 7t78 28.5t103 57.5q45 33 77 89t42.5 117
t-7 122.5t-66.5 102.5z" />
    <glyph glyph-name="zuojiantou" unicode="&#xe604;" 
d="M342 300l399 399q9 9 9 20.5t-8.5 20t-20.5 8.5t-20 -8l-414 -415q-1 0 -3.5 -1t-3.5 -2q-9 -9 -8 -22q-1 -13 8 -22q1 -1 3.5 -1.5t3.5 -1.5l414 -414q8 -8 20 -8t20.5 8t8.5 20t-9 20z" />
    <glyph glyph-name="jiahao1" unicode="&#xe6fd;" 
d="M512 700q79 0 151 -30q70 -30 123.5 -83.5t83.5 -123.5q30 -72 30 -151t-30 -151q-30 -70 -83.5 -123.5t-123.5 -83.5q-72 -30 -151 -30t-151 30q-70 30 -123.5 83.5t-83.5 123.5q-30 72 -30 151t30 151q30 70 83.5 123.5t123.5 83.5q72 30 151 30zM512 760
q-122 0 -225 -60t-163 -163t-60 -225t60 -225t163 -163t225 -60t225 60t163 163t60 225t-60 225t-163 163t-225 60v0zM727 342h-185v185q0 12 -9 21t-21 9t-21 -9t-9 -21v-185h-185q-12 0 -21 -9t-9 -21t9 -21t21 -9h185v-185q0 -12 9 -21t21 -9t21 9t9 21v185h185
q12 0 21 9t9 21t-9 21t-21 9z" />
    <glyph glyph-name="sheding" unicode="&#xe63c;" 
d="M569 -146h-114q-11 0 -18 7.5t-7 17.5v93q-50 12 -93 38l-65 -65q-7 -8 -17.5 -8t-18.5 8l-80 80q-8 8 -8 18.5t8 17.5l65 65q-26 44 -38 93h-93q-10 0 -17.5 7t-7.5 18v114q0 11 7.5 18t17.5 7h93q12 50 38 93l-65 65q-8 7 -8 17.5t8 18.5l80 80q8 8 18.5 8t17.5 -8
l65 -65q44 26 93 38v93q0 10 7 17.5t18 7.5h114q11 0 18 -7.5t7 -17.5v-93q49 -12 93 -38l65 65q7 8 17.5 8t18.5 -8l80 -80q8 -8 8 -18.5t-8 -17.5l-65 -65q26 -44 38 -93h93q10 0 17.5 -7t7.5 -18v-114q0 -11 -7.5 -18t-17.5 -7h-93q-12 -49 -38 -93l65 -65q8 -7 8 -17.5
t-8 -18.5l-80 -80q-8 -7 -18.5 -7t-17.5 7l-65 65q-43 -26 -93 -38v-93q0 -10 -7 -17.5t-18 -7.5zM480 -95h64v87q0 9 6 16t15 9q60 11 111 46q17 12 32 -3l62 -62l45 45l-62 62q-15 15 -3 32q35 51 46 111q2 9 9 15t16 6h87v64h-87q-9 0 -16 6t-9 15q-11 60 -46 111
q-12 17 3 32l62 62l-45 45l-62 -62q-15 -15 -32 -3q-51 35 -111 46q-9 2 -15 9t-6 16v87h-64v-87q0 -9 -6 -16t-15 -9q-60 -11 -111 -46q-17 -12 -32 3l-62 62l-45 -45l62 -62q15 -15 3 -32q-35 -51 -46 -111q-2 -9 -9 -15t-16 -6h-87v-64h87q9 0 16 -6t9 -15
q11 -60 46 -111q12 -17 -3 -32l-62 -62l45 -45l62 62q15 15 32 3q51 -35 111 -46q9 -2 15 -9t6 -16v-87zM512 136q-68 0 -116.5 48.5t-48.5 116.5t48.5 116.5t116.5 48.5t116.5 -48.5t48.5 -116.5t-48.5 -116.5t-116.5 -48.5zM512 421q-50 0 -85 -35t-35 -85t35 -85t85 -35
t85 35t35 85t-35 85t-85 35z" />
    <glyph glyph-name="jinlingyingcaiwangtubiao07" unicode="&#xe70a;" 
d="M815 -115q-8 0 -14 6q-5 5 -5.5 13t5.5 14q61 65 94 148t33 172q0 95 -37 181.5t-99.5 149t-149 99.5t-181.5 37q-8 0 -13.5 6t-5.5 13.5t5.5 13.5t13.5 6q103 0 196.5 -40t161 -108t108 -161.5t40.5 -196.5q0 -97 -36 -186.5t-102 -160.5q-6 -6 -14 -6zM461.5 650
q-111.5 0 -206.5 -55t-150 -150t-55 -206.5t55 -206.5t150 -150t206.5 -55t206 55t150 150t55.5 206.5t-55.5 206.5t-150 150t-206 55zM446 378q0 15 3 23t7.5 13t17 9.5t27.5 4.5h118q55 0 55 -49v-110q0 -21 -4 -33t-13 -20t-40 -8h-113q-29 0 -38.5 6.5t-14.5 16.5t-5 26
v121v0zM360 213v-206q0 -9 -5.5 -14.5t-12.5 -4.5q-8 0 -13 5.5t-5 13.5v203q-13 -22 -23.5 -39.5t-18.5 -31t-16.5 -19t-15.5 -5.5t-12 6t-3.5 13t10.5 22t14 23l25 39q16 27 23 44l7 20h-52q-7 0 -12 5t-4.5 13t5.5 13t11 5h62v69q-37 -9 -48 -9t-17 4.5t-5 14.5
q0 6 5 10.5t21.5 6.5t42.5 10q25 8 43 16q17 8 25.5 8t14.5 -5t6 -12q-1 -7 -7.5 -13.5t-19.5 -11.5l-25 -9v-79h48q7 0 12 -5t5.5 -12.5t-5 -13t-12.5 -5.5h-48v-13q25 -23 33 -32.5t24 -30.5q15 -22 14 -32q-1 -8 -6 -12t-11 -5q-12 -1 -25 17l-14 21zM504 123
q-21 -35 -25 -40q-3 -6 -25 -35q-21 -30 -32.5 -38.5t-19.5 -7.5q-5 1 -10.5 5t-5.5 11.5t10 19.5q21 25 30 36q8 11 22 32t23 41.5t15.5 26.5t10.5 7q7 2 13.5 -3t7 -17.5t-13.5 -37.5zM696 21q-1 -6 -9 -15t-22 6q-5 4 -10.5 15t-37.5 67q-32 54 -35 61.5t-3 10.5
q0 13 8 17t16 1t25 -29q16 -25 31 -50l20 -35q12 -20 15.5 -30.5t1.5 -18.5v0zM491.5 248.5q3.5 -1.5 12.5 -1.5h108q11 0 17 3.5t6 19.5v95q0 10 -2.5 14.5t-6 7t-12.5 2.5h-110q-8 0 -11.5 -2t-5 -7.5t-1.5 -15.5v-95q0 -9 1 -14t4.5 -6.5z" />
    <glyph glyph-name="wode" unicode="&#xe64f;" 
d="M249 324q-4 0 -6 -1q3 1 6 1v0v0zM924 55v3v-3v0zM969 551v1v0v-1v0zM924 552v-1v1v0v0zM951 -124q-10 71 -41 135q-6 13 -13 25v0q-31 51 -73 93v0q-10 10 -20 18q-70 62 -159 90q16 9 31 20q16 12 31 27q81 81 81 195.5t-81 195.5q-79 79 -191 80h-3.5h-3.5
q-112 -1 -191 -80q-81 -81 -81 -195.5t81 -195.5q15 -15 31 -27q15 -11 31 -20q-89 -28 -160 -90q-9 -9 -19 -18q-43 -42 -73 -93q-7 -12 -13 -25q-32 -64 -41 -135q-2 -12 5 -21t19 -10h3h4q18 4 21 23q19 131 114 227q55 55 125.5 86t146.5 31h1q77 0 147 -31t125 -86
q95 -96 114 -227q3 -19 21 -23v0h3.5h3.5q12 1 18.5 10t5.5 21v0zM512 258h-2q-77 1 -139 48.5t-81 120.5q0 2 -1 3q-6 24 -6 49t6 50q1 1 1 3q19 75 82 126t140 51h1q77 0 140 -51t82 -126q0 -2 1 -3q6 -25 6 -50t-6 -49q-1 -1 -1 -3q-19 -73 -81 -120.5t-139 -48.5h-3v0z
M512 258z" />
    <glyph glyph-name="shouhuodizhi" unicode="&#xe616;" 
d="M752 677q-47 47 -108.5 73.5t-131 26.5t-131.5 -26.5t-108.5 -73.5t-73 -109t-26.5 -131q0 -72 31.5 -139.5t89.5 -120.5l201 -182l17 -16l18 16l200 182q59 53 90.5 120.5t31.5 139.5q0 69 -26.5 131t-73.5 109zM774 319q-27 -58 -78 -104l-184 -166l-183 166
q-51 46 -78 104q-26 57 -26 118q0 119 84 203.5t203.5 84.5t203.5 -84.5t84 -203.5q0 -61 -26 -118zM792 71q-7 7 -16.5 8t-17.5 -5t-10 -17q-2 -12 6 -21q21 -22 21 -45q0 -46 -71 -82q-78 -41 -191.5 -41t-191.5 41q-71 36 -71 82q0 23 20 45q9 9 7 21q-2 11 -10 17t-18 5
t-16 -8q-34 -37 -34 -80q0 -38 26 -71t72 -57q90 -46 215.5 -46t215.5 46q46 24 72 57t26 71q0 43 -34 80v0zM607 502v0q-39 39 -94.5 39t-94.5 -39v0q-39 -39 -39 -94.5t39 -94.5t94.5 -39t94.5 39t39 94.5t-39 94.5zM570 349.5q-24 -23.5 -57.5 -23.5t-57.5 24t-24 58
t23 57h1q24 24 57.5 24t57.5 -24h1q23 -24 23 -58t-24 -57.5z" />
    <glyph glyph-name="qianbao" unicode="&#xe718;" 
d="M512.5 -159q-92.5 0 -176.5 35t-149.5 100.5t-100 149.5t-34.5 176.5t34.5 176.5t100 149.5t149.5 100t176.5 34.5t176.5 -34.5t149.5 -100t100.5 -149.5t35 -176.5t-35 -176.5t-100 -150q-66 -65 -150 -100t-176.5 -35zM513 711q-82 0 -156.5 -31t-132.5 -89t-89 -132.5
t-31 -156t31 -156.5t89 -133t132.5 -88.5t156.5 -30.5t156.5 31t132 88.5t88.5 132t31 156.5t-31 156.5t-88.5 132.5t-132 89t-156.5 31zM734 332q0 -18 -9 -25.5t-30 -7.5h-148v-97h121q21 0 29.5 -8t8.5 -25.5t-9 -25.5t-30 -8h-120v-160q0 -18 -8.5 -28t-28.5 -10
t-28 10.5t-8 27.5v160h-120q-23 0 -31 8t-8 25.5t8.5 25.5t29.5 8h121v97h-148q-23 0 -31 7.5t-8 25.5t8.5 26t29.5 8h74l-96 168q-10 17 -8.5 31.5t13.5 22t26 6.5t25 -20l116 -208h72l112 202q7 11 15 17t15.5 8t14 0.5t10.5 -4.5q13 -9 13.5 -22t-9.5 -32l-96 -169h74
q21 0 29.5 -8t8.5 -26z" />
    <glyph glyph-name="qianbao1" unicode="&#xe62e;" 
d="M704 91h-35q-7 0 -12 -5.5t-5 -12.5t5 -12t12 -5h35q7 0 12.5 5t5.5 12t-5.5 12.5t-12.5 5.5zM286 91h-35q-7 0 -12 -5.5t-5 -12.5t5 -12t12 -5h35q7 0 12.5 5t5.5 12t-5.5 12.5t-12.5 5.5zM739 247q-7 0 -12 -5t-5 -12t5 -12t12 -5t12 5t5 12t-5 12t-12 5zM826 335v139
q0 28 -19.5 48t-47.5 21l-4 35l-270 -33l-258 69l-19 -70h-9q-29 0 -49.5 -20.5t-20.5 -49.5v-418q0 -29 20.5 -49.5t49.5 -20.5h557q29 0 49.5 20.5t20.5 49.5v70q29 0 49.5 20t20.5 49v70q0 29 -20.5 49.5t-49.5 20.5zM791 474v-10q-11 7 -23 9l-5 35q12 -2 20 -12t8 -22z
M725 539l7 -60l-157 42zM252 571l363 -97h-389zM164 474q0 14 10.5 24.5t24.5 10.5l-10 -36q-13 -2 -25 -9v10zM791 56q0 -15 -10 -25t-25 -10h-557q-14 0 -24.5 10t-10.5 25v348q0 15 10.5 25t24.5 10h557q15 0 25 -10t10 -25v-69h-69q-29 0 -49.5 -20.5t-20.5 -49.5v-70
q0 -29 20.5 -49t49.5 -20h69v-70zM861 195q0 -14 -10.5 -24.5t-24.5 -10.5h-104q-15 0 -25 10.5t-10 24.5v70q0 14 10 24.5t25 10.5h104q14 0 24.5 -10.5t10.5 -24.5v-70zM286 404h-35q-7 0 -12 -5t-5 -12t5 -12.5t12 -5.5h35q7 0 12.5 5.5t5.5 12.5t-5.5 12t-12.5 5z
M669 369h35q7 0 12.5 5.5t5.5 12.5t-5.5 12t-12.5 5h-35q-7 0 -12 -5t-5 -12t5 -12.5t12 -5.5zM495 404h-35q-7 0 -12 -5t-5 -12t5 -12.5t12 -5.5h35q7 0 12.5 5.5t5.5 12.5t-5.5 12t-12.5 5zM600 91h-35q-7 0 -12.5 -5.5t-5.5 -12.5t5.5 -12t12.5 -5h35q7 0 12 5t5 12
t-5 12.5t-12 5.5zM600 404h-35q-7 0 -12.5 -5t-5.5 -12t5.5 -12.5t12.5 -5.5h35q7 0 12 5.5t5 12.5t-5 12t-12 5zM495 91h-35q-7 0 -12 -5.5t-5 -12.5t5 -12t12 -5h35q7 0 12.5 5t5.5 12t-5.5 12.5t-12.5 5.5zM391 404h-35q-7 0 -12.5 -5t-5.5 -12t5.5 -12.5t12.5 -5.5h35
q7 0 12 5.5t5 12.5t-5 12t-12 5zM391 91h-35q-7 0 -12.5 -5.5t-5.5 -12.5t5.5 -12t12.5 -5h35q7 0 12 5t5 12t-5 12.5t-12 5.5v0z" />
    <glyph glyph-name="shezhi" unicode="&#xe639;" 
d="M787 245q5 27 5 54q0 30 -6 58l95 55l-88 153l-96 -55q-43 37 -96 55v110h-176v-109q-55 -18 -98 -56l-94 55l-88 -153l93 -53q-7 -30 -7 -60q0 -28 6 -55l-93 -54l88 -153l92 54q44 -40 101 -58v-107h176v107q55 19 99 59l94 -55l88 153zM781 86l-87 50l-9 -10
q-46 -45 -107 -62l-13 -4v-99h-105v99l-13 3q-62 17 -108 63l-9 9l-85 -49l-53 91l86 49l-4 13q-7 30 -7 60q0 33 8 64l4 13l-86 49l53 91l86 -50l10 10q45 43 105 59l13 4v101h105v-102l13 -3q60 -17 104 -60l10 -10l88 51l52 -91l-87 -50l3 -13q8 -31 8 -63q0 -30 -7 -59
l-3 -13l87 -50zM512.5 467q-69.5 0 -118.5 -49t-49 -118.5t49 -119t118.5 -49.5t119 49.5t49.5 119t-49.5 118.5t-119 49zM513 167q-55 0 -94 38.5t-39 93.5t39 94t94 39t93.5 -39t38.5 -94t-38.5 -93.5t-93.5 -38.5z" />
    <glyph glyph-name="tuiguang3" unicode="&#xe623;" 
d="M214 -37q56 -18 115 -18q52 0 104.5 22t89 53t60.5 60t30 47v0q-67 12 -120 32.5t-92 49t-64 53t-53 59.5q-21 26 -46 76q-39 80 -39 207v24q-66 -63 -104 -147.5t-38 -179.5q0 -106 48 -201q19 -38 46 -72zM261 672q-1 -12 -1 -23q-3 -107 42 -203l10 -23q119 99 281 99
q112 0 205.5 -42.5t153.5 -123.5q-13 110 -74.5 200.5t-159 142.5t-209.5 49q-48 -1 -91 -9t-70.5 -19t-48 -22t-29.5 -18zM717 430q13 -52 13 -107q0 -117 -39.5 -210.5t-118.5 -150t-186 -56.5q-59 0 -115 17q109 -68 238 -68q90 0 172.5 35t142 94t95.5 141t36 172
q-34 55 -238 133z" />
    <glyph glyph-name="qianbao2" unicode="&#xe611;" 
d="M765 51q-5 66 -15.5 122t-23 94t-29.5 69t-30.5 48.5t-31.5 32.5t-26.5 20t-21.5 11q-5 2 -7 3q-41 15 -105 16h-7h-8q-7 0 -15 -1q-15 0 -29 -2q-31 -4 -53 -12q-1 0 -4 -1q-18 -7 -26.5 -10.5t-23 -12t-22 -17t-19 -24t-18 -35t-15.5 -48t-15.5 -64.5t-13 -83.5
t-13.5 -105.5v-3v-2q1 -3 1 -5q1 -6 4 -10q6 -11 15 -14q46 -17 121.5 -26t138.5 -10h13h11q17 1 28 2q1 0 54 2t63 3q60 9 105 28q9 4 14 14q3 5 4 11v5q1 1 1 2.5t-1 2.5zM585 220v-54h-77v-21h77v-53h-77v-57h-61v57h-76v53h76v21h-76v54h46l-71 131h70l46 -90
q10 -21 12 -28q2 7 12 28l47 90h70l-72 -131h54zM399 475q10 4 24.5 7.5t50 3.5t68.5 -11q-4 21 0 39t10.5 30.5t6.5 17.5q-1 18 -5.5 22t-15.5 4t-19 8q0 -1 1 -13t-3 -27.5t-15 -28.5q14 42 2 88q-1 2 -2 3q-10 -10 -29.5 -10t-25.5 -14q-1 -3 3.5 -16.5t5.5 -28t-9 -37.5
q-2 52 -12 62q-4 -10 -12.5 -12.5t-15.5 -0.5t-12 -3.5t-5 -22.5q0 -2 6 -11t8 -18.5t-5 -30.5v0z" />
    <glyph glyph-name="jifen" unicode="&#xe61e;" 
d="M604 426q-21 18 -39 26.5t-45 8.5q-32 0 -51 -17t-19 -43q0 -25 19.5 -42.5t47.5 -29t56 -24.5t47.5 -38t19.5 -61q0 -42 -28 -69.5t-76 -33.5v-59h-37v59q-66 6 -115 46l24 30q51 -40 105 -40q38 0 58 17t20 47q0 28 -19.5 47.5t-47.5 32t-56 25.5t-47.5 35.5
t-19.5 55.5q0 39 27 65.5t71 32.5v59h37v-59q52 -5 94 -44zM512 731q117 0 216 -58t157 -157t58 -216t-58 -216t-157 -157t-216 -58t-216 58t-157 157t-58 216t58 216t157 157t216 58zM512 769q-95 0 -182 -37t-150 -100t-100 -150t-37 -182t37 -182t100 -150t150 -100
t182 -37t182 37t150 100t100 150t37 182t-37 182t-100 150t-150 100t-182 37v0zM857 468zM780 575zM857 468q-3 8 -11 10.5t-15.5 -1t-10.5 -11.5t1 -15q35 -71 35 -151q0 -93 -46.5 -172.5t-125.5 -125.5t-172 -46q-8 0 -14 -5.5t-6 -14t6 -14.5t14 -6q104 0 192.5 51.5
t140 140t51.5 192.5q0 89 -39 168zM512 644q140 0 240 -98q6 -6 14 -6t14 6t6 14.5t-6 14.5q-54 53 -123 81t-145 28q-8 0 -14 -6t-6 -14.5t6 -14t14 -5.5zM378 -17q-95 41 -152.5 127t-57.5 190q0 100 54.5 185t146.5 127q7 4 10 12t-0.5 15.5t-11.5 10.5t-15 -1
q-102 -47 -163 -142t-61 -207q0 -116 64 -212.5t171 -141.5q3 -1 8 -1q13 0 18 12q3 8 0 15.5t-11 10.5z" />
    <glyph glyph-name="qianbao3" unicode="&#xe650;" 
d="M569 416l-57 -58l-57 58l-23 -23l57 -56h-57v-33h64v-32h-64v-32h64v-64h32v64h64v32h-64v32h64v33h-57l57 56zM668 581q28 35 28 70q0 17 -7 32t-24.5 32t-56.5 27t-96 10q-31 0 -58.5 -3.5t-58.5 -13.5t-49 -31.5t-18 -52.5q0 -35 28 -70q-84 -53 -140 -143t-56 -158
q0 -120 96 -192t256 -72t256 72t96 192q0 68 -56 158t-140 143zM512 48q-146 0 -233 63t-87 169q0 60 52.5 143t128.5 131l30 19l-22 28q-21 27 -21 50q0 22 16.5 37t43.5 21t48.5 8.5t43.5 2.5q25 0 48 -2.5t48.5 -9t40.5 -21.5t15 -36q0 -23 -21 -50l-22 -28l30 -19
q76 -48 128.5 -131t52.5 -143q0 -106 -87 -169t-233 -63z" />
    <glyph glyph-name="0051" unicode="&#xe63b;" 
d="M751 485q-2 2 -45 23q2 3 8 8q46 43 61 86q4 11 12 38q5 36 -2 59t-28 41q-56 47 -129 17q-5 -2 -8 1q-45 42 -107.5 42t-107.5 -41q-4 -3 -8 -1q-36 16 -76 8q-39 -8 -63.5 -37.5t-19.5 -70.5q9 -74 59 -128q1 -1 21 -23l-2 -1t-3 -1q-128 -58 -208 -174t-91 -258
q-6 -95 13 -156q20 -62 68.5 -101.5t111.5 -39.5h306.5h306.5q96 0 152 82q19 27 33 89q1 4 2 5t2 1t1.5 9t0.5 28q0 117 -17 178q-57 210 -243 317zM959 -15q-9 -59 -26 -84q-24 -35 -65.5 -55t-86.5 -20h-271h-270q-60 0 -107 31t-61 85q-14 56 -7 154q4 62 33.5 125.5
t74.5 116t99 95t112 68.5q0 1 -11 11t-23.5 22t-15.5 14q-24 28 -36.5 51t-16.5 55q-8 62 59 76q10 2 28 -2.5t32 -10t15 -4.5q39 37 94.5 37t94.5 -38q3 -3 8 -1q24 10 39.5 14t34.5 1.5t35 -16.5q18 -16 21.5 -32t-1.5 -41q-3 -9 -15.5 -31t-20.5 -33q-22 -29 -67 -73
l17.5 -9t38 -19.5t26.5 -14.5q47 -36 75.5 -61t59 -58t49.5 -70.5t31 -83.5q7 -26 10.5 -40.5t8.5 -38t6.5 -40.5t1.5 -38.5t-3 -41.5v0v0zM446 340q-3 4 -11.5 13t-15.5 16l-6 6h-50v-22t124 -128v0h-124v-49h124v-51h-124v-49h124v-100h50v100h125v50h-125v50h125v49h-125
l125 128v22h-50q-43 -42 -53 -52q-1 -1 -9.5 -10t-20 -21t-17.5 -17z" />
    <glyph glyph-name="iconfonthuodonggonggao" unicode="&#xe75a;" horiz-adv-x="1103" 
d="M567 814q-18 9 -35 -4q-33 -28 -103 -81q-101 -75 -127 -84h-134h-0.5h-1.5h-60q-11 0 -19 -8.5t-8 -20.5v-447q0 -12 8 -20t19 -8h217q26 -10 115 -84q48 -40 93 -80q9 -9 22 -9q7 0 14 3q19 9 19 31v781q0 22 -19 31v0v0zM532 57q-26 22 -48 40q-76 63 -108.5 81.5
t-49.5 18.5h-0.5h-0.5h-0.5h-0.5h-167q-14 0 -19 5.5t-5 20.5v343q0 12 3.5 17t14.5 5h151q18 0 52 18.5t116 80.5q30 22 62 47v-677v0zM860 393q0 64 -31 118t-84 85q-9 5 -15 5q-12 0 -20 -8t-8 -20q0 -16 14 -24v0q40 -24 64.5 -65.5t24.5 -90.5q0 -50 -25 -92t-67 -66v0
q-13 -8 -13 -24q0 -11 8 -19.5t19 -8.5l14 4q54 31 86.5 86t32.5 120v0v0zM828 740q-9 5 -16 5q-12 0 -20 -8t-8 -20q0 -16 16 -25q77 -46 123 -125.5t46 -173.5t-46 -174t-123 -125q-16 -10 -16 -26q0 -12 8 -20t19 -8q7 0 16 5q90 54 143 146t53 202q0 109 -53 201
t-142 146v0v0z" />
    <glyph glyph-name="tongxinghuzhutubiao01" unicode="&#xe614;" 
d="M863 342q11 11 22.5 24t28.5 39t28 53t15.5 62.5t-2 70.5t-31 75.5t-66.5 78.5q-4 3 -10.5 7.5t-28 15.5t-44 17.5t-56 8.5t-66.5 -4.5t-73.5 -29t-78.5 -58.5q-43 42 -87 64.5t-80 25.5t-69.5 -3.5t-58.5 -21t-44 -28.5t-28.5 -25l-9.5 -11q-30 -40 -45 -82t-15 -76
t10 -68t24 -58.5t33 -47.5t31 -35t24 -21l-18 -22q-14 -18 -9.5 -43t25.5 -42t46 -17q1 -30 27 -51q20 -16 45 -17q-1 -32 27 -55q19 -15 43 -16q0 -32 27 -54q21 -17 46.5 -16.5t40.5 18.5l19 23l21 -25q20 -24 52 -25t57 20q29 25 29 62q24 4 42 19q25 21 29 52
q25 3 43 19q29 25 30 61q28 2 49 20q25 21 29 52.5t-16 54.5zM169 668q95 111 233 43v0v0q9 -4 31 -20.5t29 -26.5q1 -1 1 -2l-140 -147q-3 -2 -7 -5t-12 -12.5t-10.5 -19t4 -22.5t25.5 -24q1 -2 4 -4q-39 13 -61 -15l-44 -53q-132 106 -87 243q13 39 34 65zM218 243.5
q-10 7.5 -12 20t6 22.5l65 87q8 10 20 12t22 -5.5t12 -20t-6 -22.5l-65 -87q-7 -10 -19.5 -12t-22.5 5.5zM291 175.5q-10 7.5 -12 20t5 22.5l66 87q7 10 19.5 12t22.5 -5.5t11.5 -20t-5.5 -22.5l-65 -87q-8 -10 -20 -12t-22 5.5zM404 110q-7 -10 -19.5 -11.5t-22.5 5.5
t-11.5 19.5t5.5 22.5l65 87q8 10 20 12t22 -5.5t12 -20t-5 -22.5l-66 -87v0zM474 40q-7 -10 -19.5 -12t-22.5 5.5t-11.5 20t5.5 22.5l65 87h1q7 10 19.5 12t22.5 -5.5t11.5 -20t-5.5 -22.5zM596 31q-10 -9 -24.5 -7t-24.5 14l-16 17l41 51l23 -25q10 -12 10.5 -26.5
t-9.5 -23.5zM828 283q-1 -8 -6 -14t-9 -7l-5 -2q-9 -2 -15 -0.5t-9 4.5l-3 2l-113 133v0q-9 9 -21 9q-9 0 -17 -5l-6 -6q-6 -8 -6 -18q0 -12 9 -21v0l111 -125q13 -14 11 -31v0q-1 -6 -4.5 -10t-7.5 -6l-3 -1q-12 -3 -21 5l-113 133v0q-9 10 -22 10q-12 0 -21 -8.5t-9 -20.5
q0 -13 10 -21l111 -132l1 -1q3 -4 4.5 -7.5t2.5 -5.5v-2q0 -9 -4.5 -15.5t-8.5 -7.5l-4 -2q-15 -4 -24 6l-44 51q-6 23 -25 38q-19 16 -43 17q0 31 -27 53q-20 16 -45 17q1 32 -27 55q-20 17 -45 17q-2 28 -25 49q19 -9 52.5 -10.5t70.5 5t74 24t60 42.5q1 1 3 2.5t8.5 5.5
t12.5 6t14.5 0.5t16.5 -7.5l150 -168q12 -14 11 -30zM829 383l-114 133q-27 34 -47 39t-41 -8q-23 -15 -24 -16q-21 -14 -33 -21t-39 -22t-47 -21t-44.5 -10.5t-45 2t-35.5 22.5q135 141 214 215v0h1q8 8 29 21.5t32 17.5q20 6 41 9t51.5 0.5t56.5 -13t54.5 -36t48.5 -64.5
v0q2 -5 6 -14t8.5 -37t1.5 -56t-21.5 -67t-52.5 -74z" />
    <glyph glyph-name="shuangjiantouyou" unicode="&#xe633;" 
d="M928 401v1v0q0 14 -10 23l-410 404q-10 10 -24 10q-15 0 -25 -10l-5 -5q-10 -11 -10 -25t10 -24l380 -374l-380 -374q-10 -10 -10 -24.5t10 -24.5l5 -5q10 -11 25 -11q14 0 24 10l410 404q10 10 10 25zM611 401v1v0v0q-1 14 -10 23l-410 404q-11 10 -25 10t-24 -10l-5 -5
q-10 -11 -10 -25t10 -24l380 -374l-380 -374q-10 -10 -10 -24.5t10 -24.5l5 -5q10 -11 24 -11t25 10l410 404q10 10 10 25z" />
    <glyph glyph-name="shu" unicode="&#xe60c;" horiz-adv-x="1193" 
d="M1192 228q-16 104 -99 181q-74 69 -211 114q-6 2 -110 35q76 14 165 17h163q-59 86 -172 114q-121 30 -206 -43q21 65 9 121.5t-62 95.5q-33 26 -74.5 31.5t-76.5 -10.5q56 -30 85 -79t43 -118q-89 138 -254 117q-34 -4 -71 -13t-84 -22t-70 -19q34 -31 65 -38
q31 -6 66 -13t77.5 -15t66.5 -13q3 -1 18 -3.5t20 -3.5t18 -4.5t19 -5.5t17 -6t18 -8.5t15.5 -10.5t15.5 -13q-170 51 -319 12q-93 -25 -167 -71.5t-97 -97.5q13 7 26.5 12t29.5 7.5t26.5 4t29.5 2t26.5 0.5t30 -1t27.5 -1q110 -4 153 2q32 4 66.5 11t81 17t68.5 15l-9 -6
q-27 -18 -40.5 -27.5t-38 -28t-37.5 -30.5t-32 -32t-28 -36t-20 -39t-14 -45.5t-3 -50t6 -57.5q27 46 70 91t81.5 76t84.5 74t75 81q-32 -181 90 -322q6 -7 41 -45.5t47.5 -54t32 -48t29.5 -63.5q24 264 -132 537l1 -1l1 -1h1l1 -1l1 -1h1l1 -1l1 -1h1l1 -1h1l1 -1l1 -1h1
l1 -1l1 -1h1l1 -1l1 -1h1l1 -1l1 -1h1l1 -1l1 -1h1l1 -1l1 -1h1l1 -1l1 -1h1l1 -1l1 -1h1l1 -1h1l1 -1l1 -1h1l1 -1l1 -1h1l1 -1l1 -1h1l1 -1l1 -1h1l1 -1l1 -1h1l1 -1l1 -1h1l1 -1l1 -1h1l1 -1h1l2 -1l1 -1h1l1 -1l1 -1h1l1 -1l1 -1h1l1 -1l1 -1h1l1 -1l1 -1h1l1 -1l1 -1h1
l1 -1h1l1 -1l1 -1h1l1 -1l1 -1h1l1 -1l1 -1h1l1 -1l1 -1h1l1 -1l1 -1h1l1 -1l1 -1h1l1 -1h1l1 -1l1 -1h1l1 -1l1 -1h1l1 -1l1 -1h1l1 -1l1 -1h1l1 -1l1 -1h1l1 -1h1l1 -1l1 -1h1l1 -1l1 -1h1l1 -1l1 -1h1l1 -1l1 -1h1l1 -1l1 -1h1l1 -1h1l1 -1l1 -1h1l1 -1l1 -1h1l1 -1l1 -1
h1l1 -1l1 -1h1l1 -1l1 -1h1l1 -1h1l1 -1l1 -1h1l1 -1l1 -1h1l1 -1l1 -1h1l1 -1l1 -1h1l1 -1l1 -1h1l1 -1h1l1 -1l1 -1h1l1 -1l1 -1h1l1 -1l1 -1h1l1 -1l1 -1h1l1 -1h1l1 -1l1 -1h1l1 -1l1 -1h1l1 -1l1 -1h1l1 -1l1 -1h1l1 -1l1 -1h1l1 -1h1l1 -1l1 -1h1l1 -1l1 -1l1 -1h1
l1 -1h1l1 -1l1 -1h1l1 -1l1 -1h1l1 -1l1 -1h1l1 -1l1 -1h1l1 -1h1l1 -1l1 -1h1l1 -1l1 -1h1l1 -1l1 -1h1l1 -1l1 -1h1l1 -1h1l1 -1l1 -1h1l1 -1l1 -1h1l1 -1l1 -1h1l1 -1l1 -1h1l1 -1l1 -1h1l1 -1h1l1 -1l1 -1h1l1 -1l1 -1h1l1 -1l1 -1h1l1 -1l1 -1h1l1 -1h1l1 -1l1 -1h1
l1 -1l1 -1h1l1 -1l1 -1h1l1 -1l1 -1h1l1 -1h1l1 -1l1 -1h1l1 -1l1 -1h1l1 -1l1 -1h1l1 -1l1 -1h1l1 -1h1l1 -1l1 -1h1l1 -1l1 -1h1l1 -1l1 -1h1l1 -1l1 -1h1l1 -1h1l1 -1l1 -1h1l1 -1l1 -1h1l1 -1l1 -1h1l1 -1l1 -1h1l1 -1h1l1 -1l1 -1h1l1 -1l1 -1h1l1 -1l1 -1h1l1 -1l1 -1
h1l1 -1h1l1 -1l1 -1h1l1 -1l1 -1h1l1 -1l1 -1h1l1 -1l1 -1h1l1 -1h1l1 -1l1 -1h1l1 -1l1 -1h1l1 -1l1 -1h1l1 -1l1 -1h1l1 -1h1l1 -1l1 -1h1l1 -1l1 -1h1l1 -1l1 -1h1l1 -1l1 -1h1l1 -1h1l1 -1l1 -1h1l1 -1l1 -1h1l1 -1l1 -1h1l1 -1l1 -1h1l1 -1l1 -1h1l1 -1h1l1 -1l1 -1h1
l1 -1l1 -1h1l1 -1l1 -1h1l1 -1l1 -1h1l1 -1h1l1 -1l1 -1h1l1 -1l1 -1h1l1 -1l1 -1h1l1 -1l1 -1h1l1 -1v0zM1192 228zM584 311q-50 -25 -57 -88q-4 -40 -15 -114t-15 -106q0 -8 -11 -131h109q31 249 39 312q2 15 -5 30q-6 13 -45 97v0zM584 311z" />
    <glyph glyph-name="tuiguangzhongxin" unicode="&#xe6f3;" horiz-adv-x="1181" 
d="M1085 896h-989q-40 0 -68 -28t-28 -68v-832q0 -40 28 -68t68 -28h989q39 0 67.5 28t28.5 68v832q0 40 -28.5 68t-67.5 28v0zM96 832h989q13 0 22.5 -9.5t9.5 -22.5v-451q-43 35 -147 71.5t-180 36.5q-16 0 -32 -2.5t-34 -9.5t-31.5 -12.5t-33.5 -18t-31.5 -19.5
t-33.5 -23.5t-30.5 -23t-33 -26t-31.5 -24.5q-48 -38 -74.5 -57.5t-63.5 -39t-61 -19.5q-51 0 -134.5 28.5t-101.5 46.5v543q0 13 9.5 22.5t22.5 9.5v0zM1085 -64h-989q-13 0 -22.5 9.5t-9.5 22.5v206q30 -21 109.5 -44.5t126.5 -23.5q18 0 38.5 6.5t37 14.5t41 25t38.5 28
t43 34.5t41 32.5q43 34 66.5 51.5t60.5 41t67 34t57 10.5q39 0 86.5 -12.5t88 -30t76 -36t55 -30.5t20.5 -13h1v-294q0 -13 -9.5 -22.5t-22.5 -9.5v0zM398 374q53 0 90.5 37.5t37.5 90.5t-37.5 90.5t-90.5 37.5t-90.5 -37.5t-37.5 -90.5t37.5 -90.5t90.5 -37.5v0zM398 566
q27 0 45.5 -18.5t18.5 -45t-18.5 -45.5t-45 -19t-45 19t-18.5 45.5t18.5 45t44.5 18.5v0z" />
    <glyph glyph-name="liuyan" unicode="&#xe613;" 
d="M512 830q-138 0 -255.5 -57t-186 -155.5t-68.5 -214.5q0 -148 108 -262v0q-1 -20 -3 -50.5t-13 -86.5t-27 -66h15t38.5 4.5t55 12t59.5 24t58 38.5q102 -41 219 -41q138 0 255.5 57.5t186 156t68.5 214t-68.5 214t-186 155.5t-255.5 57zM512 17q-106 0 -204 38
q-7 3 -15 3q-14 0 -28 -10q-48 -45 -132 -61q6 25 9 56q8 56 8 92q3 19 -11 34q-97 104 -97 234q0 105 63 194t171 141t235 52t235 -52t171 -141t63 -194q0 -104 -62.5 -193t-170.5 -141t-235 -52zM706 561h-388q-8 0 -14 -6t-6 -14.5t6 -14.5t14 -6h388q8 0 14 6t6 14.5
t-6 14.5t-14 6zM706 404h-388q-8 0 -14 -6t-6 -14t6 -14t14 -6h388q8 0 14 6t6 14t-6 14t-14 6zM706 248h-388q-8 0 -14 -6t-6 -14.5t6 -14.5t14 -6h388q8 0 14 6t6 14.5t-6 14.5t-14 6z" />
    <glyph glyph-name="juanzhu1" unicode="&#xe63a;" horiz-adv-x="1026" 
d="M867 274q-44 -31 -260 -123l-17 -3q-36 2 37 106q15 20 31.5 38.5t31.5 32.5t29.5 26t26.5 20.5t21.5 14t14.5 8.5l5 3q5 -1 11.5 -4t7.5 -23.5t-19 -54.5q32 30 77 81t74 87l28 36q1 2 3.5 4t9.5 8t13.5 8.5t16.5 4.5t17 -5q-13 -26 -33.5 -66t-63.5 -112.5t-62 -86.5z
M320 490q0 42 15 72t39 42.5t49.5 11.5t50 -21.5t39.5 -55.5v0q14 34 38 54t50 21t50 -10.5t39.5 -41.5t15.5 -71q1 -77 -193 -229q-1 1 -20 16.5t-38.5 31.5t-45 41t-44.5 47.5t-32 47.5t-13 44zM419 151q-216 92 -260 123q-41 29 -159 265q6 4 12.5 4.5t12 -1t11 -4t10 -6
t7.5 -6.5l5 -5l2 -2q106 -136 179 -204q-20 34 -19 54.5t8 24t11 3.5q4 -2 10.5 -5.5t25.5 -16.5t37.5 -28.5t42.5 -40.5t44 -52q77 -110 34 -106q-7 0 -14 3v0z" />
    <glyph glyph-name="shimingrenzheng" unicode="&#xe659;" horiz-adv-x="1116" 
d="M62 -93h-2q-15 1 -25 12t-10 26q8 171 113.5 306.5t270.5 184.5q14 4 27.5 -3t17.5 -21.5t-3 -27.5t-22 -18q-142 -42 -233.5 -159t-97.5 -265q-1 -15 -11.5 -25t-24.5 -10v0zM62 -93zM880 216q-17 0 -28 12q-88 100 -215 138q-14 4 -21.5 17.5t-3 28t17.5 21.5t28 3
q147 -44 249 -160q10 -12 9 -27t-13 -24q-10 -9 -23 -9v0zM880 216zM533 348q-112 0 -191.5 79.5t-79.5 191.5t79.5 191t191.5 79t191.5 -79t79.5 -191t-79.5 -191.5t-191.5 -79.5v0zM533 817q-82 0 -140.5 -58t-58.5 -140t58.5 -140.5t140.5 -58.5t140 58.5t58 140.5
t-58 140t-140 58v0zM533 817zM760 -91q-15 0 -26 11l-147 147q-11 11 -11 26t11 25.5t26 10.5t25 -11l122 -121l251 251q11 11 26 11t25.5 -11t10.5 -26t-11 -25l-277 -277q-10 -11 -25 -11v0zM760 -91z" />
    <glyph glyph-name="gongyi" unicode="&#xe836;" horiz-adv-x="1205" 
d="M1175 485q23 81 14.5 156.5t-49.5 131.5q-90 123 -251 123q-145 0 -263 -130q-117 130 -262 130q-87 0 -162 -43.5t-112 -120.5q10 -25 93 -69q47 119 181 119q76 0 148 -55t114 -148q43 93 116 148t147 55q50 0 92 -20t67 -56q71 -99 6 -221q58 5 121 0v0zM1205 433
q-18 2 -38 4t-55.5 3t-68 -4.5t-65.5 -15t-58.5 -31t-37.5 -50.5q0 1 0.5 7.5t0.5 8t0.5 7t1 7.5t1.5 7t2 7.5t2.5 6t3.5 6.5t4 7q-52 -28 -91.5 -77t-59 -95.5t-47.5 -105.5t-56 -95q-15 98 -64 201t-103 172q-15 18 -45.5 55.5t-53 67t-40.5 54.5q1 -12 -2 -39t-2 -40
q-17 23 -59 48.5t-86 47t-84.5 45.5t-61 55t-9.5 65q-42 -68 -32 -195t56 -197q31 -47 81.5 -86.5t97.5 -62.5t108 -55t99 -61q116 -87 182 -189q19 28 37.5 52t42 46.5t36 35.5t41 35t34.5 26.5t39 27.5l33 23q94 66 147 120q16 16 36.5 45t35 49t40 37t57.5 20v0z" />
    <glyph glyph-name="wsmp-payuser" unicode="&#xe61d;" 
d="M573 462q-40 -17 -73.5 -44.5t-58 -63.5t-38 -78t-13.5 -89q0 -41 10.5 -79t29.5 -71h-21q-23 0 -53.5 1.5t-63.5 4.5l-64 6q-32 4 -58.5 8t-44.5 8t-23 8q-8 6 -12.5 39t3.5 84q3 20 13 32.5t24 22t31.5 15t36 10.5t35.5 11t31 15q16 10 25.5 20t13.5 19.5t4 19.5t-1 23
q-2 18 -13 29t-24 22q-7 5 -12 15t-9 20q-4 12 -8 25q-6 1 -11 5t-10.5 11.5t-9.5 21t-3 24.5t5 19q3 9 10 17q0 30 3 60q3 26 11 55t25 52q16 22 34 36t38 22t39 10.5t38 2.5q23 0 45.5 -5t42 -13.5t35 -19.5t24.5 -22q21 -26 30.5 -56.5t13.5 -58.5q4 -31 4 -64
q5 -4 8 -10t5 -14.5t1 -21.5q-2 -17 -7 -27t-11 -15q-8 -7 -15 -9l-4 -10l-4 -11q-1 -6 -4 -12v0v0zM687 436q51 0 96.5 -19.5t79.5 -53.5t53.5 -80t19.5 -97t-19.5 -97t-53.5 -80t-79.5 -53t-96.5 -19q-53 0 -98.5 19t-79 53t-53.5 80t-20 97t20 97t53.5 80t79 53.5
t98.5 19.5v0v0zM832 235q5 16 -4 29t-24 18.5t-30 1t-22 -24.5q-4 -14 -8 -25q-3 -12 -7 -24.5t-9 -27t-13 -33.5q-8 -21 -22.5 -19.5t-22.5 16.5q-9 16 -16 34q-7 17 -15 36q-7 17 -12 32q-6 14 -10 23q-6 12 -21 14t-28.5 -4t-23 -19t-2.5 -28q5 -16 12 -35.5t15 -40.5
q8 -20 15.5 -40t12.5 -34q12 -30 36 -45t50.5 -16t51 11.5t35.5 38.5q9 21 18 43t17.5 44t15.5 41q7 20 11 34v0v0zM832 235z" />
    <glyph glyph-name="shouhuodizhi1" unicode="&#xe62b;" 
d="M512 896q-106 0 -181 -75t-75 -181q0 -63 64 -207t128 -257l64 -112q10 18 27.5 48t61.5 112.5t78 153t61.5 146.5t27.5 116q0 106 -75 181t-181 75zM512 150q-49 88 -90 168q-123 244 -123 322q0 88 62.5 150.5t150.5 62.5t150.5 -62.5t62.5 -150.5q0 -78 -123 -321
q-41 -81 -90 -169zM512 811q-71 0 -121 -50t-50 -121t50 -121t121 -50t121 50t50 121t-50 121t-121 50zM512 512q-53 0 -90.5 37.5t-37.5 90.5t37.5 90.5t90.5 37.5t90.5 -37.5t37.5 -90.5t-37.5 -90.5t-90.5 -37.5zM768 270q-4 1 -7 1q-9 0 -15.5 -6t-6.5 -15q0 -16 16 -21
v0q57 -13 103 -32q58 -24 90.5 -54t32.5 -58t-32.5 -57.5t-90.5 -53.5q-142 -59 -346 -59t-346 59q-58 24 -90.5 53.5t-32.5 57.5t32.5 58t90.5 54q45 18 99 31q8 1 13.5 7t5.5 15q0 8 -6.5 14.5t-15.5 6.5h-3v0q-118 -28 -188.5 -77.5t-70.5 -108.5q0 -58 68.5 -107
t186.5 -77.5t257 -28.5t257 28.5t186.5 77.5t68.5 107q0 59 -69.5 108t-186.5 77z" />
    <glyph glyph-name="funds01" unicode="&#xe638;" 
d="M640 544q-133 0 -226.5 -37.5t-93.5 -90.5v-384q0 -53 93.5 -90.5t226.5 -37.5t226.5 37.5t93.5 90.5v384q0 53 -93.5 90.5t-226.5 37.5zM640 488q106 0 181 -20t75 -48t-75 -48t-181 -20t-181 20t-75 48t75 48t181 20zM894 32q-6 -27 -79 -45.5t-175 -18.5t-175 18.5
t-79 45.5h-1v115q97 -51 255 -51t255 51v-115h-1zM894 224q-6 -27 -79 -45.5t-175 -18.5t-175 18.5t-79 45.5h-1v115q97 -51 255 -51t255 51v-115h-1zM256 297q-55 9 -89 23.5t-37 31.5h-1v115q49 -25 127 -39v52q0 2 1 5t1 4q-55 9 -90 23.5t-38 31.5h-1v115
q97 -51 255 -51t255 51v-54q32 -2 65 -8v139q0 35 -43 64.5t-116.5 46.5t-160.5 17t-160.5 -17t-116.5 -46.5t-43 -64.5v-384q0 -39 53 -70.5t139 -46.5v62zM384 808q106 0 181 -20t75 -48t-75 -48t-181 -20t-181 20t-75 48t75 48t181 20z" />
    <glyph glyph-name="zhanghu" unicode="&#xe653;" 
d="M642 268q18 0 30.5 -13t12.5 -31t-12.5 -30.5t-30.5 -12.5h-87v-65q0 -18 -12.5 -30.5t-30.5 -12.5t-30.5 12.5t-12.5 30.5v65h-87q-18 0 -30.5 12.5t-12.5 30.5t12.5 31t30.5 13h87v21h-87q-18 0 -30.5 13t-12.5 31t12.5 30.5t30.5 12.5h65l-79 79q-13 13 -13 31
t12.5 30.5t30.5 12.5t31 -13l82 -81l81 80q13 13 30 13t29.5 -12.5t12.5 -30t-12 -29.5l-81 -80h71q18 0 30.5 -12.5t12.5 -30.5t-12.5 -31t-30.5 -13h-87v-21h87zM967 203q0 76 -15.5 142.5t-42 115t-60.5 88.5t-71.5 66.5t-75.5 47t-72 31.5t-60.5 18t-41.5 9l-16 2
q-6 -1 -16 -2.5t-41 -9t-61 -18t-71 -31t-76.5 -46.5t-71.5 -67t-61 -89t-41 -114.5t-16 -142.5q0 -7 0.5 -19t8 -45.5t22.5 -64.5t48.5 -68.5t80 -64.5t123 -45.5t172.5 -18.5q305 0 412 176q44 75 43 150v0zM512 744q94 0 144.5 34.5t50.5 74.5q0 20 -48.5 31t-97.5 11
l-49 1l-88 -4q-107 -9 -107 -39q0 -40 50.5 -74.5t144.5 -34.5v0z" />
    <glyph glyph-name="shangcheng1" unicode="&#xe694;" 
d="M197 -17q-32 0 -54 22t-22 53v176q0 10 7 17t17 7t17 -7t7 -17l1 -176q0 -11 8 -19t19 -8l619 1q11 0 19 7.5t8 18.5v179q0 10 7 17.5t17 7.5t17.5 -7.5t7.5 -17.5v-179q0 -31 -22.5 -53t-53.5 -22h-619v0v0zM237 305q-44 0 -77 17v3v0v0h-3h-3q-42 23 -66 63t-24 88
q0 27 9 53v1v0q0 2 1 3l83 196v0q9 26 32 41t53 15h542q31 0 55.5 -16t33.5 -42v0l77 -192q1 -1 1 -4v0v-1v0l1 -1q8 -26 8 -53q0 -47 -24 -87.5t-66 -63.5q-35 -19 -82 -19q-81 0 -132 61l-7 7l-6 -7q-51 -61 -131 -61t-131 61l-6 7l-7 -7q-51 -61 -131 -62v0v0zM180 366
q24 -12 57 -12q32 0 59.5 15.5t45.5 42.5v1v0q4 8 8 13v0q8 9 24 9q18 0 27 -10v-1q3 -3 6 -10l1 -1v0q17 -27 44.5 -43t59.5 -16t59.5 16t44.5 43v0l1 1q3 7 7 11v1q9 10 25 10t25 -10q4 -5 8 -12v-1v0q17 -28 45 -43.5t61 -15.5q34 1 59 14q30 16 47 45t17 63q0 20 -7 40
v3l-1 1l-76 190q-9 25 -42 27h-1h-542q-31 0 -40 -26l-82 -193v0v-2q-7 -20 -7 -41q0 -34 17.5 -63t47.5 -45l2 -1v0v0zM243 508q-10 0 -17 7t-7 17t7 17.5t17 7.5h527q10 0 17 -7.5t7 -17.5t-7 -17t-17 -7h-527v0zM243 508z" />
    <glyph glyph-name="aixinjuanzhu" unicode="&#xe612;" 
d="M150 596v6q3 2 6 15q22 93 117 122q2 1 6.5 1.5t8 1.5t6.5 4h6q2 -3 15 -3q27 0 128 -1q0 -3 -2 -6t-3.5 -4t-5.5 -3t-5 -3q-150 -97 -230 -147q-4 -2 -13 -9t-16 -10.5t-14 -5.5q-1 5 -0.5 21.5t-3.5 20.5zM162 132q-4 5 -6 17t-6 17v6q4 6 3.5 16t0.5 17q5 -1 11 3
q5 4 28.5 18.5t36.5 23.5q4 3 13 8t16 10t12 10q10 -20 33 -55q-24 -15 -25 -16q-19 -11 -117 -75zM727 746q0 -2 1 -3l-25 -1h-69h-59h-132q-103 1 -128 1q-13 0 -15 3h427zM154 205q-1 -4 -0.5 -17t-3.5 -16v424q4 -8 3.5 -21t0.5 -21v-95v-57v-69v-69v-59zM154 459v95
q7 2 14 5.5t16 10.5t13 9q80 50 230 147q1 1 5 3t5.5 3t3.5 4t2 6h132q-3 -6 -17 -15q-94 -60 -136 -87q-9 -6 -9 -13q-55 -23 -106 -79q-8 1 -21 -7q-6 -4 -25 -16.5t-29 -18.5q-5 -3 -33.5 -21.5t-44.5 -25.5zM873 226q2 -58 -5 -83q-14 -51 -55.5 -84.5t-93.5 -35.5h-159
q-1 8 7 12q6 4 26 17l262 168q10 6 18 6zM873 226q-8 0 -18 -6l-262 -168q-20 -13 -26 -17q-8 -4 -7 -12h-108q0 3 0.5 4.5t2 3.5t2 2.5t3.5 2l3 1.5q68 45 137 89q10 7 11 13q47 22 83 54q8 -1 16 4q22 13 62 39t58 37q3 2 12 8.5t16 9.5t15 3v-68zM611 139q-1 -6 -11 -13
q-69 -44 -137 -89l-3 -1.5t-3.5 -2t-2 -2.5t-2 -3.5t-0.5 -4.5h-131q-1 7 9 14q81 51 96 61q2 1 11.5 6.5t15 10t9.5 10.5q33 -4 45 -4q44 -1 104 18zM873 294q-8 0 -15 -3t-16 -9.5t-12 -8.5q-18 -11 -58 -37t-62 -39q-8 -5 -16 -4q58 59 76 134q6 0 15 5q46 31 52 34
q3 2 10 7.5t13 8t13 2.5v-90zM243 40q-29 11 -51 39q0 7 8 12q103 65 125 79q1 0 5 2.5t5 3.5t2.5 3.5t1.5 6.5q25 -21 61 -40q-92 -59 -101 -65q-6 -4 -19 -11.5t-22 -14t-15 -15.5zM858 650q16 -33 15 -69q-6 1 -15 -5q-56 -36 -77 -50q-3 -1 -11 -6t-13 -8.5t-9 -9.5
q-19 32 -37 54q2 4 9 8q4 3 26.5 17.5t34.5 21.5q5 3 33 21.5t44 25.5zM243 40q6 9 15 15.5t22 14t19 11.5q9 7 101 65q8 -5 18 -8.5t24 -7t20 -5.5q-4 -6 -9.5 -10.5t-15 -10t-11.5 -6.5q-15 -10 -96 -61q-10 -7 -9 -14q-45 -2 -78 17zM339 186q0 -4 -1.5 -6.5t-2.5 -3.5
t-5 -3.5t-5 -2.5q-20 -13 -125 -79q-8 -5 -8 -12q-22 23 -30 53q106 69 117 75q1 1 25 16zM858 650q-16 -7 -44 -25.5t-33 -21.5q-12 -7 -34.5 -21.5t-26.5 -17.5q-7 -4 -9 -8q-15 16 -42 39q86 57 94 62q7 4 19.5 12.5t23 15t20.5 10.5q20 -18 32 -45zM826 695
q-10 -4 -20.5 -10.5t-23 -15t-19.5 -12.5q-9 -5 -94 -62q-31 19 -47 28q7 8 23 19q20 13 134 86q29 -11 47 -33zM779 728q-113 -73 -134 -86q-16 -10 -23 -19q-44 16 -59 19q0 6 10 12q75 48 97 62q3 2 9 5.5t9.5 6t8 6.5t6.5 8l25 1q30 -3 51 -15zM748 502q4 6 9 9.5
t13 8.5t11 6q21 14 77 50q9 6 15 5v-71q-8 0 -19 -7q-7 -4 -38 -24.5t-49 -29.5zM873 384q-7 0 -13 -2.5t-13 -8t-10 -7.5q-6 -3 -52 -34q-9 -5 -15 -5q6 35 6 66q13 6 35.5 21t27.5 17q2 1 9.5 6.5t12.5 7.5t12 2v-63zM873 447q-7 0 -12 -2t-12.5 -7.5t-9.5 -6.5
q-5 -2 -27.5 -17t-35.5 -21q-2 19 -9 56q18 9 49 29.5t38 24.5q11 7 19 6v-62zM767 449q7 -37 9 -56q0 -31 -6 -66q-18 -75 -76 -134q-36 -32 -83 -54q-60 -19 -104 -18q-12 0 -45 4q-6 2 -20 5.5t-24 7t-18 7.5q-36 20 -61 41l-35 37q-23 35 -33 55q-1 6 -7 20.5t-7 22.5
q-7 32 -8 66q3 38 12 75q27 64 46 86q51 56 106 79q68 28 150 15q15 -3 59 -19q16 -9 47 -28q27 -23 42 -39q18 -22 37 -54zM268 345q6 -39 19 -63q9 -25 24 -42q22 -34 50 -51q22 -22 62 -36q27 -13 68 -16q85 -8 156 37.5t100 128.5q11 33 10 48q9 44 -4 93q-11 40 -28 66
q-13 26 -36 46q-18 22 -48 39q-34 22 -59 24q-25 12 -79 12q-18 -2 -19 -2q-131 -17 -193 -134q-24 -46 -26 -102q-2 -15 3 -48zM257 321q1 -8 7 -22.5t7 -20.5q-5 -5 -12 -10t-16 -10t-13 -8q-13 -9 -36.5 -23.5t-28.5 -18.5q-6 -4 -11 -3v59q6 0 15 6q51 33 60 39
q2 1 6.5 4t7 4.5t6.5 3t8 0.5zM563 642q-82 13 -150 -15q0 7 9 13q43 27 136 87q14 9 17 15h128q-2 -4 -6.5 -8t-8 -6.5t-9.5 -6t-9 -5.5q-22 -15 -97 -62q-10 -6 -10 -12zM307 548q-19 -22 -46 -86q-7 0 -15 -5q-47 -31 -52 -34q-5 -2 -12.5 -8t-14 -9t-13.5 -4v57
q16 7 44.5 25.5t33.5 21.5q10 6 29 18.5t25 16.5q13 8 21 7zM154 402q7 1 13.5 4t14 9t12.5 8q5 3 52 34q8 5 15 5q-9 -37 -12 -75q-13 -5 -34.5 -19.5t-28.5 -18.5q-3 -1 -9.5 -6t-11.5 -7.5t-11 -2.5v69zM154 333q6 0 11 2.5t11.5 7.5t9.5 6q7 4 28.5 18.5t34.5 19.5
q1 -34 8 -66q-5 1 -9 -0.5t-11 -6.5t-8 -5q-9 -6 -60 -39q-9 -6 -15 -6v69zM265 393q2 56 26 102q9 -1 21 7t68 43.5t86 55.5q2 1 12.5 7t16 11t8.5 12q54 0 79 -12q-1 -3 -3.5 -5.5t-4.5 -4t-5.5 -4t-5.5 -2.5q-26 -18 -73 -48q-11 -6 -11 -13q-34 7 -56.5 -6t-28.5 -42
q-3 -11 1 -41l-15 -6q-3 2 -10.5 6.5t-10.5 8.5q-5 2 -6.5 3t-8.5 -1.5t-8 -3.5q-6 -1 -4 -14q0 -1 1 -17q-1 0 -15 -7q-5 -2 -23 -14.5t-30 -14.5zM757 351q1 -15 -10 -48q-7 1 -17 -6q-39 -25 -116 -74t-115 -74q-9 -5 -8 -12q-41 3 -68 16q52 35 105 67q25 1 27 1
q22 0 26 3.5t6 24.5q7 0 15 6q90 58 103 66q5 3 15.5 10.5t19 12.5t17.5 7zM491 137q-1 7 8 12q39 25 116 74.5t115 73.5q11 7 17 6q-29 -83 -100 -128.5t-156 -37.5zM757 351q-9 -2 -17.5 -7t-19 -12.5t-15.5 -10.5q-13 -8 -103 -66q-8 -6 -15 -6q0 11 13 23l13.5 13.5
t17 16.5t14.5 13q41 31 43 89l2 7q2 0 10 4q6 3 23.5 15t29.5 14q13 -49 4 -93zM753 444q-12 -2 -29.5 -14t-23.5 -15q-8 -4 -10 -4q4 35 4 37q2 13 -6 13q-2 0 -7.5 2t-8.5 2t-7 -3q-3 -2 -10 -8t-10.5 -11.5t-1.5 -12.5q0 -3 -3 -4q-14 -7 -14 -33q0 -7 -2 -14t-4 -11.5
t-8 -11t-8 -8.5t-10.5 -9t-9.5 -8q-2 -1 -8 -2q-6 0 -8.5 2t-0.5 9q1 5 4 15.5t5 15.5q5 14 -5 21l13 4q8 -8 17 3q21 29 30 57q6 1 11.5 3.5t14.5 8.5t10 7l18 12t21.5 13.5t18.5 9.5q17 -26 28 -66zM361 189q-28 17 -50 51q1 6 9 11q10 6 30.5 19t30.5 20q11 7 11 13
q7 -4 15 -13.5t13 -13.5q23 -15 19 -41q-6 1 -16 -6q-9 -6 -62 -40zM361 189q53 34 62 40q10 7 16 6q0 -8 3 -11.5t11 -2.5h34q13 -1 14 12q4 45 3 55q2 1 8.5 4t10.5 2q-6 -38 5 -74q-53 -32 -105 -67q-40 14 -62 36zM503 631q-3 -7 -8.5 -12t-16 -11t-12.5 -7
q-30 -20 -86 -55.5t-68 -43.5t-21 -7q62 117 193 134q1 0 19 2zM479 542q0 7 11 13q48 31 73 48q2 0 5.5 2.5t5.5 4t4.5 4t3.5 5.5q25 -2 59 -24q-1 -4 -9 -9l-42 -27q-10 -7 -9 -13q-44 3 -68 -33q-9 14 -34 29zM725 510q-9 -4 -18.5 -9.5t-21.5 -13.5l-18 -12
q-2 -2 -8 -5.5t-9 -6t-8.5 -4.5t-10.5 -3q3 35 -3 52q0 3 1 5t2.5 3t4 3t3.5 2q6 5 24 16t26 19q23 -20 36 -46zM287 282q-13 24 -19 63q2 0 11 4q8 4 27.5 17.5t32.5 17.5q4 -37 24 -53q-13 -5 -54 -32q-2 -1 -6 -3.5t-6.5 -4t-5 -4t-4.5 -5.5zM287 282q2 4 5 6.5t9.5 6.5
t7.5 4q41 27 54 32q23 -20 29 -28q0 -6 -11 -13q-10 -7 -30.5 -20t-30.5 -19q-8 -5 -9 -11q-15 17 -24 42zM689 556q-8 -8 -26 -19t-24 -16q-1 0 -3.5 -2t-4 -3t-2.5 -3t-1 -5q-16 28 -47 38q-1 6 9 13l42 27q8 5 9 9q30 -17 48 -39zM339 384q-13 -4 -32.5 -17.5
t-27.5 -17.5q-9 -4 -11 -4q-5 33 -3 48q12 2 30 14.5t23 14.5q14 7 15 7q5 -24 6 -45zM581 546q31 -10 47 -38q6 -17 3 -52q-9 -28 -30 -57q-9 -11 -17 -3q-9 12 -23.5 9.5t-20.5 -17.5q-4 -9 -9.5 -26t-7.5 -23q0 -1 -1 -4.5t-2 -5t-3 -3t-5 -1.5t-4.5 1t-3 3t-2 3t-1 5
l-0.5 4q-6 22 -15 43q-3 17 -20 22q-17 4 -33 -15q-24 22 -38 62q-4 30 -1 41q6 29 28.5 42t56.5 6q25 -15 34 -29q24 36 68 33zM339 384q-1 21 -6 45q-1 16 -1 17q-2 13 4 14q1 1 8 3.5t8.5 1.5t6.5 -3q3 -4 10.5 -8.5t10.5 -6.5q0 -2 0.5 -6t0.5 -6.5t1.5 -5t4.5 -4.5
q8 -5 9 -16q4 -50 35 -71q14 -8 16 -9q8 -2 10.5 1t0.5 11q-1 4 -4 13.5t-4 15.5l-1 3t-1.5 4t-0.5 3.5t0.5 4t2 3t4.5 3.5q2 1 4 1h3.5t3.5 -1.5t2.5 -1.5t2.5 -2.5t3 -2.5q8 -25 31 -96q1 -10 -3 -55q-1 -13 -14 -12h-34q-8 -1 -11 2.5t-3 11.5q4 26 -19 41q-5 4 -13 13.5
t-15 13.5q-6 8 -29 28q-20 16 -24 53zM473 384q-1 0 -2 2q-9 9 -17 5q-3 -2 -4.5 -3.5t-2 -3t-0.5 -4t0.5 -3.5t1.5 -4l1 -3q1 -6 4 -15.5t4 -13.5q2 -8 -0.5 -11t-10.5 -1q-2 1 -16 9q-31 21 -35 71q-1 11 -9 16q-3 2 -4.5 5t-2 9.5t-0.5 7.5q13 5 15 6q14 -40 38 -62
q16 19 33 15q17 -5 20 -22h-13zM528 220q-11 36 -5 74l28 84q6 16 20 14q10 -7 5 -21q-2 -5 -5 -15.5t-4 -15.5q-2 -7 0.5 -9t8.5 -2q6 1 8 2q1 1 9.5 8t10.5 9t8 8.5t8 11t4 11.5t2 14q0 26 14 33q3 1 3 4q-2 7 1.5 12.5t10.5 11.5t10 8q4 3 7 3t8.5 -2t7.5 -2q8 0 6 -13
q0 -2 -4 -37l-2 -7q-2 -58 -43 -89q-7 -6 -14.5 -13t-17 -16.5l-13.5 -13.5q-13 -12 -13 -23q-2 -21 -6 -24.5t-26 -3.5q-3 0 -27 -1zM571 392q-14 2 -20 -14q-2 -7 -28 -84q-4 1 -10.5 -2t-8.5 -4q-23 71 -31 96h13q9 -21 14 -43q1 -1 1 -3q3 -13 11 -13q3 0 5 1.5t3 3t2 5
t1 4.5q2 6 7.5 23t9.5 26q6 15 20.5 17.5t23.5 -9.5q-8 -2 -13 -4z" />
    <glyph glyph-name="zuanshi" unicode="&#xe61f;" horiz-adv-x="1025" 
d="M513 -103l-511 583l201 385h621l201 -385zM106 492l407 -464l408 464l-150 286h-515zM513 153l-302 334l65 58l237 -263l238 263l64 -58z" />
    <glyph glyph-name="11" unicode="&#xe602;" 
d="M431.5 667q-99.5 0 -183.5 -49t-133 -133t-49 -183.5t49 -183.5t133 -133t183.5 -49t183.5 49t133 133t49 183.5t-49 183.5t-133 133t-183.5 49zM431 -23q-88 0 -162.5 43.5t-118 118t-43.5 162.5t43.5 163t118 118.5t162.5 43.5t163 -43.5t118.5 -118.5t43.5 -163
t-43.5 -162.5t-118.5 -118t-163 -43.5zM594 829q-87 0 -162.5 -38t-126.5 -104q33 11 70 16q93 85 219 85q88 0 162.5 -43.5t118 -118t43.5 -162.5q0 -126 -85 -219q-5 -37 -16 -70q66 51 104 126.5t38 162.5q0 99 -49 183t-133 133t-183 49zM510 443l-26 13l-64 -125
l-64 124l-26 -13l64 -124h-67v-29h78v-43h-78v-28h78v-61h29v61h78v28h-78v43h78v29h-67zM832 245q4 29 4 57q0 109 -54 202.5t-147 147.5t-203 54q-30 0 -60 -4q96 87 222 87q88 0 162.5 -43.5t118 -118t43.5 -162.5q0 -127 -86 -220z" />
    <glyph glyph-name="duanxin" unicode="&#xe681;" 
d="M384 191q-7 -2 -12 -7q-8 -8 -8 -20t8 -20l11 -10l96 -96q8 -9 20 -9q1 0 2 1q10 0 18 8t8 19.5t-8 20.5l-18 17l-38 39l-51 50q-5 5 -11 7h-17zM169 739q-35 0 -59.5 -24.5t-24.5 -59.5v-438q0 -34 24.5 -58.5t59.5 -24.5h288q6 0 1 4l-46 46q-3 3 -6 5q-4 2 -11 2h-226
q-11 0 -18.5 7.5t-7.5 18.5v438q0 11 7.5 18.5t18.5 7.5h687q11 0 18.5 -7.5t7.5 -18.5v-438q0 -11 -7.5 -18.5t-18.5 -7.5h-249q-7 0 -11 -2q-3 -2 -6 -5l-50 -50l-39 -39l-17 -17q-9 -9 -9 -20.5t9 -19.5q7 -8 17 -8q1 -1 2 -1q12 0 20 9l92 92q4 4 10 4h231
q34 0 58.5 24.5t24.5 58.5v438q0 35 -24.5 59.5t-58.5 24.5h-687zM286 430q0 -19 13 -32t31.5 -13.5t32 13t13.5 32.5v0q0 18 -13.5 31.5t-32 13.5t-31.5 -13.5t-13 -31.5v0zM649 428q0 -18 13 -30.5t32 -12.5t32 12.5t13 30.5t-13 30.5t-32 12.5t-32 -12.5t-13 -30.5z
M467 427q0 -19 13.5 -32t32 -13t31.5 13t13 31.5t-13 32t-31.5 13.5t-32 -13.5t-13.5 -31.5v0z" />
    <glyph glyph-name="huzhujihua" unicode="&#xe600;" horiz-adv-x="1129" 
d="M639 287l-1 1l-1 1q-7 7 -16.5 7t-16 -7t-6.5 -16.5t7 -16.5l188 -193q-26 -23 -54 -47l-16 17l-172 177l-2 2q-7 7 -16.5 7t-16 -7t-6.5 -16q0 -12 9 -19l185 -190q-28 -22 -59 -45l-185 190q-1 0 -3 2q-6 7 -15.5 7t-16 -7t-6.5 -16q0 -13 11 -20l178 -183l-44 -30
q-12 8 -32 22.5t-79 60.5t-112 93t-118 114.5t-112 131t-79 137t-32 137.5q0 73 16.5 129.5t42 90.5t62 56t72.5 30t76 8q43 1 86.5 -13.5t79 -38t60 -43.5t45.5 -41q0 -1 270 -294l8 -8q4 -7 12 -11q5 -7 14 -7t16 7t7 17q0 12 -11 19q-5 7 -13 9q-11 17 -40 25
q-47 64 -216 249q44 33 65 51q105 81 206 80q41 0 77.5 -8t73 -30t62.5 -56.5t42.5 -91t16.5 -129.5q0 -167 -211 -396l-322 330q-1 0 -3 2q-7 7 -16 7t-16 -7t-7 -16q0 -13 11 -20l321 -329q-261 -266 -604 -406l528 365l-172 176v0z" />
    <glyph glyph-name="lijijuanzhu" unicode="&#xe6c4;" horiz-adv-x="1026" 
d="M320 396q0 41 15.5 71.5t39 43t49 11.5t50.5 -21.5t39 -55.5q14 34 38.5 54t50.5 21t49.5 -10.5t39 -41.5t15.5 -71q0 -23 -19.5 -54.5t-42 -56.5t-56.5 -55.5t-47 -40.5t-28 -22q-1 1 -20 16.5t-38.5 31.5t-44.5 41t-44 47.5t-32.5 47.5t-13.5 44zM866 180
q-43 -30 -259 -122v0l-17 -4q-36 2 37 106q64 90 154 140l5 3q6 -1 12 -4t7.5 -23.5t-19.5 -54.5q33 30 78 81t73.5 86.5t28.5 36.5q1 1 3 3.5t9.5 8.5t14 8.5t16 4.5t17.5 -5q1 0 -30 -59.5t-70.5 -125.5t-59.5 -80zM418 57q-216 92 -259 123q-41 29 -157 262l-2 3
q6 4 12.5 4.5t12 -1t11 -4t10 -6t7.5 -6.5l5 -5l2 -2q107 -136 179 -204q-20 34 -19 54.5t8 24t11 3.5q4 -2 10.5 -5.5t25.5 -16.5t37.5 -28t42.5 -40.5t43 -52.5q78 -110 34 -106q-7 0 -14 3v0z" />
    <glyph glyph-name="shangcheng" unicode="&#xe671;" horiz-adv-x="1246" 
d="M1060 896h-882q-49 0 -82.5 -31.5t-33.5 -75.5v-815q0 -41 33.5 -71.5t82.5 -30.5h891q46 0 80.5 32t34.5 75v810q-3 44 -39 75.5t-85 31.5zM1122 -21q0 -23 -17 -38.5t-41 -15.5h-886q-24 0 -41 15.5t-17 38.5v815q0 23 17 38t41 15h891q23 0 40 -15t17 -38v-815h-4z
M935 696q-23 0 -38 -14.5t-15 -34.5q0 -18 17 -36h5v-4q-17 -97 -97.5 -160t-187.5 -63t-187.5 63t-97.5 160v4h4q18 12 18 36q0 20 -15 34.5t-38 14.5q-21 0 -37.5 -15t-16.5 -34q0 -27 27 -40h4v-5q17 -116 114 -193.5t224.5 -77.5t225 77.5t113.5 193.5v5h5q12 6 19 17.5
t7 22.5q0 20 -15 34.5t-38 14.5z" />
    <glyph glyph-name="shimingrenzheng1" unicode="&#xe658;" 
d="M954 722q-1 9 -8 17.5t-15 11.5l-396 114q-11 5 -23 5t-23 -5l-396 -114q-8 -3 -15 -11.5t-8 -17.5q-3 -22 -5 -54t2.5 -121t22.5 -169q38 -162 124 -276q106 -141 281 -200q17 -7 34 0q175 59 281 200q87 115 124 276q18 80 22.5 168.5t2.5 122t-5 53.5zM864 394
q-74 -325 -352 -423q-276 97 -352 421q-34 145 -21 299l373 107l373 -107q13 -151 -21 -297zM476 236v0q-15 0 -25 10l-124 123q-10 11 -10 25.5t10.5 25t25 10.5t25.5 -11l98 -98l204 197q10 9 24 9q15 0 25 -10.5t10 -25.5q0 -14 -9 -24l-229 -221q-10 -10 -25 -10v0z" />
  </font>
</defs>
</svg>
